M48
;DRILL file {KiCad no-vcs-found-7602~57~ubuntu16.04.1} date Wed Feb  8 13:56:55 2017
;FORMAT={-:-/ absolute / inch / decimal}
FMAT,2
INCH,TZ
T1C0.043
T2C0.130
%
G90
G05
M72
T1
X3.475Y-2.8
X3.475Y-4.2
X3.575Y-2.8
X3.575Y-4.2
X3.675Y-2.8
X3.675Y-4.2
X3.775Y-2.8
X3.775Y-4.2
X3.875Y-2.8
X3.875Y-4.2
X3.975Y-2.8
X3.975Y-4.2
X4.075Y-2.8
X4.075Y-4.2
X4.175Y-2.8
X4.175Y-4.2
X4.275Y-2.8
X4.275Y-4.2
X4.375Y-2.8
X4.375Y-4.2
X4.475Y-2.8
X4.475Y-4.2
X4.575Y-2.8
X4.575Y-4.2
X4.675Y-2.8
X4.675Y-4.2
X4.775Y-2.8
X4.775Y-4.2
X4.875Y-2.8
X4.875Y-4.2
X4.975Y-2.8
X4.975Y-4.2
T2
X3.525Y-3.
X3.525Y-4.
X5.125Y-2.8
X5.125Y-4.2
T0
M30
