%TF.GenerationSoftware,KiCad,Pcbnew,no-vcs-found-427e5ec~60~ubuntu16.04.1*%
%TF.CreationDate,2017-09-22T15:23:26-04:00*%
%TF.ProjectId,i2c_interface_3x2,6932635F696E746572666163655F3378,1.0*%
%TF.SameCoordinates,Original*%
%TF.FileFunction,Legend,Top*%
%TF.FilePolarity,Positive*%
%FSLAX46Y46*%
G04 Gerber Fmt 4.6, Leading zero omitted, Abs format (unit mm)*
G04 Created by KiCad (PCBNEW no-vcs-found-427e5ec~60~ubuntu16.04.1) date Fri Sep 22 15:23:26 2017*
%MOMM*%
%LPD*%
G01*
G04 APERTURE LIST*
%ADD10C,0.127000*%
%ADD11C,0.254000*%
%ADD12C,0.228600*%
%ADD13C,0.190500*%
%ADD14C,0.381000*%
%ADD15C,3.556000*%
%ADD16O,1.854200X2.540000*%
%ADD17R,1.854200X2.540000*%
%ADD18O,1.625600X2.133600*%
%ADD19R,1.625600X2.133600*%
G04 APERTURE END LIST*
D10*
X144634857Y-70841809D02*
X144925142Y-70841809D01*
X144780000Y-71349809D02*
X144780000Y-70841809D01*
X141459857Y-103861809D02*
X141750142Y-103861809D01*
X141605000Y-104369809D02*
X141605000Y-103861809D01*
X139367380Y-105131809D02*
X139657666Y-105131809D01*
X139512523Y-105639809D02*
X139512523Y-105131809D01*
X139827000Y-105373714D02*
X139996333Y-105373714D01*
X140068904Y-105639809D02*
X139827000Y-105639809D01*
X139827000Y-105131809D01*
X140068904Y-105131809D01*
X140576904Y-105639809D02*
X140407571Y-105397904D01*
X140286619Y-105639809D02*
X140286619Y-105131809D01*
X140480142Y-105131809D01*
X140528523Y-105156000D01*
X140552714Y-105180190D01*
X140576904Y-105228571D01*
X140576904Y-105301142D01*
X140552714Y-105349523D01*
X140528523Y-105373714D01*
X140480142Y-105397904D01*
X140286619Y-105397904D01*
X140794619Y-105639809D02*
X140794619Y-105131809D01*
X140963952Y-105494666D01*
X141133285Y-105131809D01*
X141133285Y-105639809D01*
X141375190Y-105639809D02*
X141375190Y-105131809D01*
X141617095Y-105639809D02*
X141617095Y-105131809D01*
X141907380Y-105639809D01*
X141907380Y-105131809D01*
X142125095Y-105494666D02*
X142367000Y-105494666D01*
X142076714Y-105639809D02*
X142246047Y-105131809D01*
X142415380Y-105639809D01*
X142512142Y-105131809D02*
X142802428Y-105131809D01*
X142657285Y-105639809D02*
X142657285Y-105131809D01*
X143068523Y-105131809D02*
X143165285Y-105131809D01*
X143213666Y-105156000D01*
X143262047Y-105204380D01*
X143286238Y-105301142D01*
X143286238Y-105470476D01*
X143262047Y-105567238D01*
X143213666Y-105615619D01*
X143165285Y-105639809D01*
X143068523Y-105639809D01*
X143020142Y-105615619D01*
X142971761Y-105567238D01*
X142947571Y-105470476D01*
X142947571Y-105301142D01*
X142971761Y-105204380D01*
X143020142Y-105156000D01*
X143068523Y-105131809D01*
X143794238Y-105639809D02*
X143624904Y-105397904D01*
X143503952Y-105639809D02*
X143503952Y-105131809D01*
X143697476Y-105131809D01*
X143745857Y-105156000D01*
X143770047Y-105180190D01*
X143794238Y-105228571D01*
X143794238Y-105301142D01*
X143770047Y-105349523D01*
X143745857Y-105373714D01*
X143697476Y-105397904D01*
X143503952Y-105397904D01*
X145717380Y-70841809D02*
X146007666Y-70841809D01*
X145862523Y-71349809D02*
X145862523Y-70841809D01*
X146177000Y-71083714D02*
X146346333Y-71083714D01*
X146418904Y-71349809D02*
X146177000Y-71349809D01*
X146177000Y-70841809D01*
X146418904Y-70841809D01*
X146926904Y-71349809D02*
X146757571Y-71107904D01*
X146636619Y-71349809D02*
X146636619Y-70841809D01*
X146830142Y-70841809D01*
X146878523Y-70866000D01*
X146902714Y-70890190D01*
X146926904Y-70938571D01*
X146926904Y-71011142D01*
X146902714Y-71059523D01*
X146878523Y-71083714D01*
X146830142Y-71107904D01*
X146636619Y-71107904D01*
X147144619Y-71349809D02*
X147144619Y-70841809D01*
X147313952Y-71204666D01*
X147483285Y-70841809D01*
X147483285Y-71349809D01*
X147725190Y-71349809D02*
X147725190Y-70841809D01*
X147967095Y-71349809D02*
X147967095Y-70841809D01*
X148257380Y-71349809D01*
X148257380Y-70841809D01*
X148475095Y-71204666D02*
X148717000Y-71204666D01*
X148426714Y-71349809D02*
X148596047Y-70841809D01*
X148765380Y-71349809D01*
X148862142Y-70841809D02*
X149152428Y-70841809D01*
X149007285Y-71349809D02*
X149007285Y-70841809D01*
X149418523Y-70841809D02*
X149515285Y-70841809D01*
X149563666Y-70866000D01*
X149612047Y-70914380D01*
X149636238Y-71011142D01*
X149636238Y-71180476D01*
X149612047Y-71277238D01*
X149563666Y-71325619D01*
X149515285Y-71349809D01*
X149418523Y-71349809D01*
X149370142Y-71325619D01*
X149321761Y-71277238D01*
X149297571Y-71180476D01*
X149297571Y-71011142D01*
X149321761Y-70914380D01*
X149370142Y-70866000D01*
X149418523Y-70841809D01*
X150144238Y-71349809D02*
X149974904Y-71107904D01*
X149853952Y-71349809D02*
X149853952Y-70841809D01*
X150047476Y-70841809D01*
X150095857Y-70866000D01*
X150120047Y-70890190D01*
X150144238Y-70938571D01*
X150144238Y-71011142D01*
X150120047Y-71059523D01*
X150095857Y-71083714D01*
X150047476Y-71107904D01*
X149853952Y-71107904D01*
D11*
X109933619Y-99725238D02*
X109933619Y-99144666D01*
X110949619Y-99434952D02*
X109933619Y-99434952D01*
X110417428Y-98806000D02*
X110417428Y-98467333D01*
X110949619Y-98322190D02*
X110949619Y-98806000D01*
X109933619Y-98806000D01*
X109933619Y-98322190D01*
X110949619Y-97306190D02*
X110465809Y-97644857D01*
X110949619Y-97886761D02*
X109933619Y-97886761D01*
X109933619Y-97499714D01*
X109982000Y-97402952D01*
X110030380Y-97354571D01*
X110127142Y-97306190D01*
X110272285Y-97306190D01*
X110369047Y-97354571D01*
X110417428Y-97402952D01*
X110465809Y-97499714D01*
X110465809Y-97886761D01*
X110949619Y-96870761D02*
X109933619Y-96870761D01*
X110659333Y-96532095D01*
X109933619Y-96193428D01*
X110949619Y-96193428D01*
X110949619Y-95709619D02*
X109933619Y-95709619D01*
X110949619Y-95225809D02*
X109933619Y-95225809D01*
X110949619Y-94645238D01*
X109933619Y-94645238D01*
X110659333Y-94209809D02*
X110659333Y-93726000D01*
X110949619Y-94306571D02*
X109933619Y-93967904D01*
X110949619Y-93629238D01*
X109933619Y-93435714D02*
X109933619Y-92855142D01*
X110949619Y-93145428D02*
X109933619Y-93145428D01*
X109933619Y-92322952D02*
X109933619Y-92129428D01*
X109982000Y-92032666D01*
X110078761Y-91935904D01*
X110272285Y-91887523D01*
X110610952Y-91887523D01*
X110804476Y-91935904D01*
X110901238Y-92032666D01*
X110949619Y-92129428D01*
X110949619Y-92322952D01*
X110901238Y-92419714D01*
X110804476Y-92516476D01*
X110610952Y-92564857D01*
X110272285Y-92564857D01*
X110078761Y-92516476D01*
X109982000Y-92419714D01*
X109933619Y-92322952D01*
X110949619Y-90871523D02*
X110465809Y-91210190D01*
X110949619Y-91452095D02*
X109933619Y-91452095D01*
X109933619Y-91065047D01*
X109982000Y-90968285D01*
X110030380Y-90919904D01*
X110127142Y-90871523D01*
X110272285Y-90871523D01*
X110369047Y-90919904D01*
X110417428Y-90968285D01*
X110465809Y-91065047D01*
X110465809Y-91452095D01*
D12*
X142240000Y-99695000D02*
X150495000Y-99695000D01*
X137795000Y-99695000D02*
X140970000Y-99695000D01*
X143510000Y-93980000D02*
X143510000Y-95250000D01*
X143510000Y-90805000D02*
X143510000Y-92710000D01*
X143510000Y-88265000D02*
X143510000Y-89535000D01*
X143510000Y-84455000D02*
X143510000Y-85725000D01*
X143510000Y-81280000D02*
X143510000Y-83185000D01*
X143510000Y-78740000D02*
X143510000Y-80010000D01*
X143510000Y-74930000D02*
X143510000Y-76200000D01*
X143510000Y-73660000D02*
X143510000Y-69215000D01*
X141605000Y-73660000D02*
X144145000Y-73660000D01*
X141605000Y-81280000D02*
X141605000Y-73660000D01*
X144145000Y-81280000D02*
X141605000Y-81280000D01*
X142875000Y-74930000D02*
X144145000Y-74930000D01*
X142875000Y-80010000D02*
X142875000Y-74930000D01*
X144145000Y-80010000D02*
X142875000Y-80010000D01*
X141605000Y-90805000D02*
X144145000Y-90805000D01*
X141605000Y-83185000D02*
X141605000Y-90805000D01*
X144145000Y-83185000D02*
X141605000Y-83185000D01*
X142875000Y-84455000D02*
X144145000Y-84455000D01*
X142875000Y-89535000D02*
X142875000Y-84455000D01*
X144145000Y-89535000D02*
X142875000Y-89535000D01*
X140970000Y-92710000D02*
X140970000Y-101600000D01*
X144145000Y-92710000D02*
X140970000Y-92710000D01*
X142240000Y-93980000D02*
X144145000Y-93980000D01*
X142240000Y-101600000D02*
X142240000Y-93980000D01*
X144145000Y-69850000D02*
X144145000Y-72390000D01*
X145415000Y-69850000D02*
X145415000Y-72390000D01*
X145415000Y-73025000D02*
X145415000Y-75565000D01*
X144145000Y-73025000D02*
X144145000Y-75565000D01*
X144145000Y-79375000D02*
X144145000Y-81915000D01*
X145415000Y-79375000D02*
X145415000Y-81915000D01*
X145415000Y-82550000D02*
X145415000Y-85090000D01*
X144145000Y-82550000D02*
X144145000Y-85090000D01*
X144145000Y-72390000D02*
X145415000Y-72390000D01*
X144145000Y-73025000D02*
X145415000Y-73025000D01*
X144145000Y-81915000D02*
X145415000Y-81915000D01*
X144145000Y-82550000D02*
X145415000Y-82550000D01*
X145415000Y-85090000D02*
X144145000Y-85090000D01*
X145415000Y-75565000D02*
X144145000Y-75565000D01*
X145415000Y-79375000D02*
X144145000Y-79375000D01*
X145415000Y-69850000D02*
X144145000Y-69850000D01*
X150495000Y-69215000D02*
X150495000Y-76200000D01*
X150495000Y-78740000D02*
X150495000Y-85725000D01*
X143510000Y-76200000D02*
X150495000Y-76200000D01*
X143510000Y-85725000D02*
X150495000Y-85725000D01*
X143510000Y-78740000D02*
X150495000Y-78740000D01*
X143510000Y-69215000D02*
X150495000Y-69215000D01*
X150495000Y-95250000D02*
X143510000Y-95250000D01*
X150495000Y-88265000D02*
X150495000Y-95250000D01*
X143510000Y-88265000D02*
X150495000Y-88265000D01*
X144145000Y-88900000D02*
X144145000Y-91440000D01*
X145415000Y-88900000D02*
X144145000Y-88900000D01*
X145415000Y-91440000D02*
X145415000Y-88900000D01*
X144145000Y-91440000D02*
X145415000Y-91440000D01*
X145415000Y-92075000D02*
X144145000Y-92075000D01*
X145415000Y-94615000D02*
X145415000Y-92075000D01*
X144145000Y-94615000D02*
X145415000Y-94615000D01*
X144145000Y-92075000D02*
X144145000Y-94615000D01*
X142875000Y-103505000D02*
X140335000Y-103505000D01*
X142875000Y-104775000D02*
X142875000Y-103505000D01*
X140335000Y-104775000D02*
X142875000Y-104775000D01*
X140335000Y-103505000D02*
X140335000Y-104775000D01*
X142875000Y-101600000D02*
X140335000Y-101600000D01*
X142875000Y-102870000D02*
X142875000Y-101600000D01*
X140335000Y-102870000D02*
X142875000Y-102870000D01*
X140335000Y-101600000D02*
X140335000Y-102870000D01*
X150495000Y-99695000D02*
X150495000Y-106680000D01*
X137795000Y-99695000D02*
X137795000Y-106680000D01*
X137795000Y-106680000D02*
X150495000Y-106680000D01*
X156210000Y-67945000D02*
X85725000Y-67945000D01*
X156210000Y-109855000D02*
X156210000Y-67945000D01*
X85725000Y-109855000D02*
X156210000Y-109855000D01*
X85725000Y-67945000D02*
X85725000Y-109855000D01*
D13*
X92437857Y-104599619D02*
X92437857Y-103583619D01*
X92873285Y-104599619D02*
X92873285Y-104067428D01*
X92824904Y-103970666D01*
X92728142Y-103922285D01*
X92583000Y-103922285D01*
X92486238Y-103970666D01*
X92437857Y-104019047D01*
X93211952Y-103922285D02*
X93599000Y-103922285D01*
X93357095Y-103583619D02*
X93357095Y-104454476D01*
X93405476Y-104551238D01*
X93502238Y-104599619D01*
X93599000Y-104599619D01*
X93792523Y-103922285D02*
X94179571Y-103922285D01*
X93937666Y-103583619D02*
X93937666Y-104454476D01*
X93986047Y-104551238D01*
X94082809Y-104599619D01*
X94179571Y-104599619D01*
X94518238Y-103922285D02*
X94518238Y-104938285D01*
X94518238Y-103970666D02*
X94615000Y-103922285D01*
X94808523Y-103922285D01*
X94905285Y-103970666D01*
X94953666Y-104019047D01*
X95002047Y-104115809D01*
X95002047Y-104406095D01*
X94953666Y-104502857D01*
X94905285Y-104551238D01*
X94808523Y-104599619D01*
X94615000Y-104599619D01*
X94518238Y-104551238D01*
X95389095Y-104551238D02*
X95485857Y-104599619D01*
X95679380Y-104599619D01*
X95776142Y-104551238D01*
X95824523Y-104454476D01*
X95824523Y-104406095D01*
X95776142Y-104309333D01*
X95679380Y-104260952D01*
X95534238Y-104260952D01*
X95437476Y-104212571D01*
X95389095Y-104115809D01*
X95389095Y-104067428D01*
X95437476Y-103970666D01*
X95534238Y-103922285D01*
X95679380Y-103922285D01*
X95776142Y-103970666D01*
X96259952Y-104502857D02*
X96308333Y-104551238D01*
X96259952Y-104599619D01*
X96211571Y-104551238D01*
X96259952Y-104502857D01*
X96259952Y-104599619D01*
X96259952Y-103970666D02*
X96308333Y-104019047D01*
X96259952Y-104067428D01*
X96211571Y-104019047D01*
X96259952Y-103970666D01*
X96259952Y-104067428D01*
X97469476Y-103535238D02*
X96598619Y-104841523D01*
X98533857Y-103535238D02*
X97663000Y-104841523D01*
X99307952Y-103922285D02*
X99307952Y-104744761D01*
X99259571Y-104841523D01*
X99211190Y-104889904D01*
X99114428Y-104938285D01*
X98969285Y-104938285D01*
X98872523Y-104889904D01*
X99307952Y-104551238D02*
X99211190Y-104599619D01*
X99017666Y-104599619D01*
X98920904Y-104551238D01*
X98872523Y-104502857D01*
X98824142Y-104406095D01*
X98824142Y-104115809D01*
X98872523Y-104019047D01*
X98920904Y-103970666D01*
X99017666Y-103922285D01*
X99211190Y-103922285D01*
X99307952Y-103970666D01*
X99791761Y-104599619D02*
X99791761Y-103922285D01*
X99791761Y-103583619D02*
X99743380Y-103632000D01*
X99791761Y-103680380D01*
X99840142Y-103632000D01*
X99791761Y-103583619D01*
X99791761Y-103680380D01*
X100130428Y-103922285D02*
X100517476Y-103922285D01*
X100275571Y-103583619D02*
X100275571Y-104454476D01*
X100323952Y-104551238D01*
X100420714Y-104599619D01*
X100517476Y-104599619D01*
X100856142Y-104599619D02*
X100856142Y-103583619D01*
X101291571Y-104599619D02*
X101291571Y-104067428D01*
X101243190Y-103970666D01*
X101146428Y-103922285D01*
X101001285Y-103922285D01*
X100904523Y-103970666D01*
X100856142Y-104019047D01*
X102210809Y-103922285D02*
X102210809Y-104599619D01*
X101775380Y-103922285D02*
X101775380Y-104454476D01*
X101823761Y-104551238D01*
X101920523Y-104599619D01*
X102065666Y-104599619D01*
X102162428Y-104551238D01*
X102210809Y-104502857D01*
X102694619Y-104599619D02*
X102694619Y-103583619D01*
X102694619Y-103970666D02*
X102791380Y-103922285D01*
X102984904Y-103922285D01*
X103081666Y-103970666D01*
X103130047Y-104019047D01*
X103178428Y-104115809D01*
X103178428Y-104406095D01*
X103130047Y-104502857D01*
X103081666Y-104551238D01*
X102984904Y-104599619D01*
X102791380Y-104599619D01*
X102694619Y-104551238D01*
X103613857Y-104502857D02*
X103662238Y-104551238D01*
X103613857Y-104599619D01*
X103565476Y-104551238D01*
X103613857Y-104502857D01*
X103613857Y-104599619D01*
X104533095Y-104551238D02*
X104436333Y-104599619D01*
X104242809Y-104599619D01*
X104146047Y-104551238D01*
X104097666Y-104502857D01*
X104049285Y-104406095D01*
X104049285Y-104115809D01*
X104097666Y-104019047D01*
X104146047Y-103970666D01*
X104242809Y-103922285D01*
X104436333Y-103922285D01*
X104533095Y-103970666D01*
X105113666Y-104599619D02*
X105016904Y-104551238D01*
X104968523Y-104502857D01*
X104920142Y-104406095D01*
X104920142Y-104115809D01*
X104968523Y-104019047D01*
X105016904Y-103970666D01*
X105113666Y-103922285D01*
X105258809Y-103922285D01*
X105355571Y-103970666D01*
X105403952Y-104019047D01*
X105452333Y-104115809D01*
X105452333Y-104406095D01*
X105403952Y-104502857D01*
X105355571Y-104551238D01*
X105258809Y-104599619D01*
X105113666Y-104599619D01*
X105887761Y-104599619D02*
X105887761Y-103922285D01*
X105887761Y-104019047D02*
X105936142Y-103970666D01*
X106032904Y-103922285D01*
X106178047Y-103922285D01*
X106274809Y-103970666D01*
X106323190Y-104067428D01*
X106323190Y-104599619D01*
X106323190Y-104067428D02*
X106371571Y-103970666D01*
X106468333Y-103922285D01*
X106613476Y-103922285D01*
X106710238Y-103970666D01*
X106758619Y-104067428D01*
X106758619Y-104599619D01*
X107968142Y-103535238D02*
X107097285Y-104841523D01*
X108306809Y-103922285D02*
X108306809Y-104793142D01*
X108258428Y-104889904D01*
X108161666Y-104938285D01*
X108113285Y-104938285D01*
X108306809Y-103583619D02*
X108258428Y-103632000D01*
X108306809Y-103680380D01*
X108355190Y-103632000D01*
X108306809Y-103583619D01*
X108306809Y-103680380D01*
X109226047Y-104599619D02*
X109226047Y-104067428D01*
X109177666Y-103970666D01*
X109080904Y-103922285D01*
X108887380Y-103922285D01*
X108790619Y-103970666D01*
X109226047Y-104551238D02*
X109129285Y-104599619D01*
X108887380Y-104599619D01*
X108790619Y-104551238D01*
X108742238Y-104454476D01*
X108742238Y-104357714D01*
X108790619Y-104260952D01*
X108887380Y-104212571D01*
X109129285Y-104212571D01*
X109226047Y-104164190D01*
X109709857Y-103922285D02*
X109709857Y-104599619D01*
X109709857Y-104019047D02*
X109758238Y-103970666D01*
X109855000Y-103922285D01*
X110000142Y-103922285D01*
X110096904Y-103970666D01*
X110145285Y-104067428D01*
X110145285Y-104599619D01*
X111016142Y-104551238D02*
X110919380Y-104599619D01*
X110725857Y-104599619D01*
X110629095Y-104551238D01*
X110580714Y-104454476D01*
X110580714Y-104067428D01*
X110629095Y-103970666D01*
X110725857Y-103922285D01*
X110919380Y-103922285D01*
X111016142Y-103970666D01*
X111064523Y-104067428D01*
X111064523Y-104164190D01*
X110580714Y-104260952D01*
X111645095Y-104599619D02*
X111548333Y-104551238D01*
X111499952Y-104454476D01*
X111499952Y-103583619D01*
X112032142Y-104599619D02*
X112032142Y-103922285D01*
X112032142Y-103583619D02*
X111983761Y-103632000D01*
X112032142Y-103680380D01*
X112080523Y-103632000D01*
X112032142Y-103583619D01*
X112032142Y-103680380D01*
X112951380Y-104599619D02*
X112951380Y-104067428D01*
X112903000Y-103970666D01*
X112806238Y-103922285D01*
X112612714Y-103922285D01*
X112515952Y-103970666D01*
X112951380Y-104551238D02*
X112854619Y-104599619D01*
X112612714Y-104599619D01*
X112515952Y-104551238D01*
X112467571Y-104454476D01*
X112467571Y-104357714D01*
X112515952Y-104260952D01*
X112612714Y-104212571D01*
X112854619Y-104212571D01*
X112951380Y-104164190D01*
X113435190Y-104212571D02*
X114209285Y-104212571D01*
X114693095Y-104599619D02*
X114693095Y-103922285D01*
X114693095Y-104019047D02*
X114741476Y-103970666D01*
X114838238Y-103922285D01*
X114983380Y-103922285D01*
X115080142Y-103970666D01*
X115128523Y-104067428D01*
X115128523Y-104599619D01*
X115128523Y-104067428D02*
X115176904Y-103970666D01*
X115273666Y-103922285D01*
X115418809Y-103922285D01*
X115515571Y-103970666D01*
X115563952Y-104067428D01*
X115563952Y-104599619D01*
X116192904Y-104599619D02*
X116096142Y-104551238D01*
X116047761Y-104502857D01*
X115999380Y-104406095D01*
X115999380Y-104115809D01*
X116047761Y-104019047D01*
X116096142Y-103970666D01*
X116192904Y-103922285D01*
X116338047Y-103922285D01*
X116434809Y-103970666D01*
X116483190Y-104019047D01*
X116531571Y-104115809D01*
X116531571Y-104406095D01*
X116483190Y-104502857D01*
X116434809Y-104551238D01*
X116338047Y-104599619D01*
X116192904Y-104599619D01*
X117402428Y-104599619D02*
X117402428Y-103583619D01*
X117402428Y-104551238D02*
X117305666Y-104599619D01*
X117112142Y-104599619D01*
X117015380Y-104551238D01*
X116967000Y-104502857D01*
X116918619Y-104406095D01*
X116918619Y-104115809D01*
X116967000Y-104019047D01*
X117015380Y-103970666D01*
X117112142Y-103922285D01*
X117305666Y-103922285D01*
X117402428Y-103970666D01*
X118321666Y-103922285D02*
X118321666Y-104599619D01*
X117886238Y-103922285D02*
X117886238Y-104454476D01*
X117934619Y-104551238D01*
X118031380Y-104599619D01*
X118176523Y-104599619D01*
X118273285Y-104551238D01*
X118321666Y-104502857D01*
X118950619Y-104599619D02*
X118853857Y-104551238D01*
X118805476Y-104454476D01*
X118805476Y-103583619D01*
X119773095Y-104599619D02*
X119773095Y-104067428D01*
X119724714Y-103970666D01*
X119627952Y-103922285D01*
X119434428Y-103922285D01*
X119337666Y-103970666D01*
X119773095Y-104551238D02*
X119676333Y-104599619D01*
X119434428Y-104599619D01*
X119337666Y-104551238D01*
X119289285Y-104454476D01*
X119289285Y-104357714D01*
X119337666Y-104260952D01*
X119434428Y-104212571D01*
X119676333Y-104212571D01*
X119773095Y-104164190D01*
X120256904Y-104599619D02*
X120256904Y-103922285D01*
X120256904Y-104115809D02*
X120305285Y-104019047D01*
X120353666Y-103970666D01*
X120450428Y-103922285D01*
X120547190Y-103922285D01*
X120885857Y-104212571D02*
X121659952Y-104212571D01*
X122579190Y-104599619D02*
X122579190Y-103583619D01*
X122579190Y-104551238D02*
X122482428Y-104599619D01*
X122288904Y-104599619D01*
X122192142Y-104551238D01*
X122143761Y-104502857D01*
X122095380Y-104406095D01*
X122095380Y-104115809D01*
X122143761Y-104019047D01*
X122192142Y-103970666D01*
X122288904Y-103922285D01*
X122482428Y-103922285D01*
X122579190Y-103970666D01*
X123450047Y-104551238D02*
X123353285Y-104599619D01*
X123159761Y-104599619D01*
X123063000Y-104551238D01*
X123014619Y-104454476D01*
X123014619Y-104067428D01*
X123063000Y-103970666D01*
X123159761Y-103922285D01*
X123353285Y-103922285D01*
X123450047Y-103970666D01*
X123498428Y-104067428D01*
X123498428Y-104164190D01*
X123014619Y-104260952D01*
X123837095Y-103922285D02*
X124079000Y-104599619D01*
X124320904Y-103922285D01*
X124707952Y-104599619D02*
X124707952Y-103922285D01*
X124707952Y-103583619D02*
X124659571Y-103632000D01*
X124707952Y-103680380D01*
X124756333Y-103632000D01*
X124707952Y-103583619D01*
X124707952Y-103680380D01*
X125627190Y-104551238D02*
X125530428Y-104599619D01*
X125336904Y-104599619D01*
X125240142Y-104551238D01*
X125191761Y-104502857D01*
X125143380Y-104406095D01*
X125143380Y-104115809D01*
X125191761Y-104019047D01*
X125240142Y-103970666D01*
X125336904Y-103922285D01*
X125530428Y-103922285D01*
X125627190Y-103970666D01*
X126449666Y-104551238D02*
X126352904Y-104599619D01*
X126159380Y-104599619D01*
X126062619Y-104551238D01*
X126014238Y-104454476D01*
X126014238Y-104067428D01*
X126062619Y-103970666D01*
X126159380Y-103922285D01*
X126352904Y-103922285D01*
X126449666Y-103970666D01*
X126498047Y-104067428D01*
X126498047Y-104164190D01*
X126014238Y-104260952D01*
X126885095Y-104551238D02*
X126981857Y-104599619D01*
X127175380Y-104599619D01*
X127272142Y-104551238D01*
X127320523Y-104454476D01*
X127320523Y-104406095D01*
X127272142Y-104309333D01*
X127175380Y-104260952D01*
X127030238Y-104260952D01*
X126933476Y-104212571D01*
X126885095Y-104115809D01*
X126885095Y-104067428D01*
X126933476Y-103970666D01*
X127030238Y-103922285D01*
X127175380Y-103922285D01*
X127272142Y-103970666D01*
D11*
X86311619Y-97294095D02*
X87037333Y-97294095D01*
X87182476Y-97342476D01*
X87279238Y-97439238D01*
X87327619Y-97584380D01*
X87327619Y-97681142D01*
X87327619Y-96374857D02*
X86795428Y-96374857D01*
X86698666Y-96423238D01*
X86650285Y-96520000D01*
X86650285Y-96713523D01*
X86698666Y-96810285D01*
X87279238Y-96374857D02*
X87327619Y-96471619D01*
X87327619Y-96713523D01*
X87279238Y-96810285D01*
X87182476Y-96858666D01*
X87085714Y-96858666D01*
X86988952Y-96810285D01*
X86940571Y-96713523D01*
X86940571Y-96471619D01*
X86892190Y-96374857D01*
X86650285Y-95891047D02*
X87327619Y-95891047D01*
X86747047Y-95891047D02*
X86698666Y-95842666D01*
X86650285Y-95745904D01*
X86650285Y-95600761D01*
X86698666Y-95504000D01*
X86795428Y-95455619D01*
X87327619Y-95455619D01*
X87279238Y-94584761D02*
X87327619Y-94681523D01*
X87327619Y-94875047D01*
X87279238Y-94971809D01*
X87182476Y-95020190D01*
X86795428Y-95020190D01*
X86698666Y-94971809D01*
X86650285Y-94875047D01*
X86650285Y-94681523D01*
X86698666Y-94584761D01*
X86795428Y-94536380D01*
X86892190Y-94536380D01*
X86988952Y-95020190D01*
X87327619Y-93955809D02*
X87279238Y-94052571D01*
X87182476Y-94100952D01*
X86311619Y-94100952D01*
X87327619Y-93568761D02*
X86650285Y-93568761D01*
X86311619Y-93568761D02*
X86360000Y-93617142D01*
X86408380Y-93568761D01*
X86360000Y-93520380D01*
X86311619Y-93568761D01*
X86408380Y-93568761D01*
X87327619Y-92649523D02*
X86795428Y-92649523D01*
X86698666Y-92697904D01*
X86650285Y-92794666D01*
X86650285Y-92988190D01*
X86698666Y-93084952D01*
X87279238Y-92649523D02*
X87327619Y-92746285D01*
X87327619Y-92988190D01*
X87279238Y-93084952D01*
X87182476Y-93133333D01*
X87085714Y-93133333D01*
X86988952Y-93084952D01*
X86940571Y-92988190D01*
X86940571Y-92746285D01*
X86892190Y-92649523D01*
X87327619Y-91391619D02*
X86311619Y-91391619D01*
X87037333Y-91052952D01*
X86311619Y-90714285D01*
X87327619Y-90714285D01*
X87327619Y-90085333D02*
X87279238Y-90182095D01*
X87230857Y-90230476D01*
X87134095Y-90278857D01*
X86843809Y-90278857D01*
X86747047Y-90230476D01*
X86698666Y-90182095D01*
X86650285Y-90085333D01*
X86650285Y-89940190D01*
X86698666Y-89843428D01*
X86747047Y-89795047D01*
X86843809Y-89746666D01*
X87134095Y-89746666D01*
X87230857Y-89795047D01*
X87279238Y-89843428D01*
X87327619Y-89940190D01*
X87327619Y-90085333D01*
X87327619Y-88875809D02*
X86311619Y-88875809D01*
X87279238Y-88875809D02*
X87327619Y-88972571D01*
X87327619Y-89166095D01*
X87279238Y-89262857D01*
X87230857Y-89311238D01*
X87134095Y-89359619D01*
X86843809Y-89359619D01*
X86747047Y-89311238D01*
X86698666Y-89262857D01*
X86650285Y-89166095D01*
X86650285Y-88972571D01*
X86698666Y-88875809D01*
X86650285Y-87956571D02*
X87327619Y-87956571D01*
X86650285Y-88392000D02*
X87182476Y-88392000D01*
X87279238Y-88343619D01*
X87327619Y-88246857D01*
X87327619Y-88101714D01*
X87279238Y-88004952D01*
X87230857Y-87956571D01*
X87327619Y-87327619D02*
X87279238Y-87424380D01*
X87182476Y-87472761D01*
X86311619Y-87472761D01*
X87327619Y-86505142D02*
X86795428Y-86505142D01*
X86698666Y-86553523D01*
X86650285Y-86650285D01*
X86650285Y-86843809D01*
X86698666Y-86940571D01*
X87279238Y-86505142D02*
X87327619Y-86601904D01*
X87327619Y-86843809D01*
X87279238Y-86940571D01*
X87182476Y-86988952D01*
X87085714Y-86988952D01*
X86988952Y-86940571D01*
X86940571Y-86843809D01*
X86940571Y-86601904D01*
X86892190Y-86505142D01*
X87327619Y-86021333D02*
X86650285Y-86021333D01*
X86843809Y-86021333D02*
X86747047Y-85972952D01*
X86698666Y-85924571D01*
X86650285Y-85827809D01*
X86650285Y-85731047D01*
X87327619Y-84618285D02*
X86311619Y-84618285D01*
X86311619Y-84376380D01*
X86360000Y-84231238D01*
X86456761Y-84134476D01*
X86553523Y-84086095D01*
X86747047Y-84037714D01*
X86892190Y-84037714D01*
X87085714Y-84086095D01*
X87182476Y-84134476D01*
X87279238Y-84231238D01*
X87327619Y-84376380D01*
X87327619Y-84618285D01*
X87279238Y-83215238D02*
X87327619Y-83312000D01*
X87327619Y-83505523D01*
X87279238Y-83602285D01*
X87182476Y-83650666D01*
X86795428Y-83650666D01*
X86698666Y-83602285D01*
X86650285Y-83505523D01*
X86650285Y-83312000D01*
X86698666Y-83215238D01*
X86795428Y-83166857D01*
X86892190Y-83166857D01*
X86988952Y-83650666D01*
X86650285Y-82828190D02*
X87327619Y-82586285D01*
X86650285Y-82344380D01*
X87327619Y-81957333D02*
X86650285Y-81957333D01*
X86311619Y-81957333D02*
X86360000Y-82005714D01*
X86408380Y-81957333D01*
X86360000Y-81908952D01*
X86311619Y-81957333D01*
X86408380Y-81957333D01*
X87279238Y-81038095D02*
X87327619Y-81134857D01*
X87327619Y-81328380D01*
X87279238Y-81425142D01*
X87230857Y-81473523D01*
X87134095Y-81521904D01*
X86843809Y-81521904D01*
X86747047Y-81473523D01*
X86698666Y-81425142D01*
X86650285Y-81328380D01*
X86650285Y-81134857D01*
X86698666Y-81038095D01*
X87279238Y-80215619D02*
X87327619Y-80312380D01*
X87327619Y-80505904D01*
X87279238Y-80602666D01*
X87182476Y-80651047D01*
X86795428Y-80651047D01*
X86698666Y-80602666D01*
X86650285Y-80505904D01*
X86650285Y-80312380D01*
X86698666Y-80215619D01*
X86795428Y-80167238D01*
X86892190Y-80167238D01*
X86988952Y-80651047D01*
X89105619Y-93568761D02*
X88428285Y-93568761D01*
X88089619Y-93568761D02*
X88138000Y-93617142D01*
X88186380Y-93568761D01*
X88138000Y-93520380D01*
X88089619Y-93568761D01*
X88186380Y-93568761D01*
X88186380Y-93133333D02*
X88138000Y-93084952D01*
X88089619Y-92988190D01*
X88089619Y-92746285D01*
X88138000Y-92649523D01*
X88186380Y-92601142D01*
X88283142Y-92552761D01*
X88379904Y-92552761D01*
X88525047Y-92601142D01*
X89105619Y-93181714D01*
X89105619Y-92552761D01*
X89057238Y-91681904D02*
X89105619Y-91778666D01*
X89105619Y-91972190D01*
X89057238Y-92068952D01*
X89008857Y-92117333D01*
X88912095Y-92165714D01*
X88621809Y-92165714D01*
X88525047Y-92117333D01*
X88476666Y-92068952D01*
X88428285Y-91972190D01*
X88428285Y-91778666D01*
X88476666Y-91681904D01*
X89202380Y-91488380D02*
X89202380Y-90714285D01*
X89105619Y-90472380D02*
X88428285Y-90472380D01*
X88089619Y-90472380D02*
X88138000Y-90520761D01*
X88186380Y-90472380D01*
X88138000Y-90424000D01*
X88089619Y-90472380D01*
X88186380Y-90472380D01*
X88428285Y-89988571D02*
X89105619Y-89988571D01*
X88525047Y-89988571D02*
X88476666Y-89940190D01*
X88428285Y-89843428D01*
X88428285Y-89698285D01*
X88476666Y-89601523D01*
X88573428Y-89553142D01*
X89105619Y-89553142D01*
X88428285Y-89214476D02*
X88428285Y-88827428D01*
X88089619Y-89069333D02*
X88960476Y-89069333D01*
X89057238Y-89020952D01*
X89105619Y-88924190D01*
X89105619Y-88827428D01*
X89057238Y-88101714D02*
X89105619Y-88198476D01*
X89105619Y-88392000D01*
X89057238Y-88488761D01*
X88960476Y-88537142D01*
X88573428Y-88537142D01*
X88476666Y-88488761D01*
X88428285Y-88392000D01*
X88428285Y-88198476D01*
X88476666Y-88101714D01*
X88573428Y-88053333D01*
X88670190Y-88053333D01*
X88766952Y-88537142D01*
X89105619Y-87617904D02*
X88428285Y-87617904D01*
X88621809Y-87617904D02*
X88525047Y-87569523D01*
X88476666Y-87521142D01*
X88428285Y-87424380D01*
X88428285Y-87327619D01*
X88428285Y-87134095D02*
X88428285Y-86747047D01*
X89105619Y-86988952D02*
X88234761Y-86988952D01*
X88138000Y-86940571D01*
X88089619Y-86843809D01*
X88089619Y-86747047D01*
X89105619Y-85972952D02*
X88573428Y-85972952D01*
X88476666Y-86021333D01*
X88428285Y-86118095D01*
X88428285Y-86311619D01*
X88476666Y-86408380D01*
X89057238Y-85972952D02*
X89105619Y-86069714D01*
X89105619Y-86311619D01*
X89057238Y-86408380D01*
X88960476Y-86456761D01*
X88863714Y-86456761D01*
X88766952Y-86408380D01*
X88718571Y-86311619D01*
X88718571Y-86069714D01*
X88670190Y-85972952D01*
X89057238Y-85053714D02*
X89105619Y-85150476D01*
X89105619Y-85344000D01*
X89057238Y-85440761D01*
X89008857Y-85489142D01*
X88912095Y-85537523D01*
X88621809Y-85537523D01*
X88525047Y-85489142D01*
X88476666Y-85440761D01*
X88428285Y-85344000D01*
X88428285Y-85150476D01*
X88476666Y-85053714D01*
X89057238Y-84231238D02*
X89105619Y-84328000D01*
X89105619Y-84521523D01*
X89057238Y-84618285D01*
X88960476Y-84666666D01*
X88573428Y-84666666D01*
X88476666Y-84618285D01*
X88428285Y-84521523D01*
X88428285Y-84328000D01*
X88476666Y-84231238D01*
X88573428Y-84182857D01*
X88670190Y-84182857D01*
X88766952Y-84666666D01*
X90206285Y-95939428D02*
X91222285Y-95939428D01*
X90254666Y-95939428D02*
X90206285Y-95842666D01*
X90206285Y-95649142D01*
X90254666Y-95552380D01*
X90303047Y-95504000D01*
X90399809Y-95455619D01*
X90690095Y-95455619D01*
X90786857Y-95504000D01*
X90835238Y-95552380D01*
X90883619Y-95649142D01*
X90883619Y-95842666D01*
X90835238Y-95939428D01*
X90883619Y-94584761D02*
X90351428Y-94584761D01*
X90254666Y-94633142D01*
X90206285Y-94729904D01*
X90206285Y-94923428D01*
X90254666Y-95020190D01*
X90835238Y-94584761D02*
X90883619Y-94681523D01*
X90883619Y-94923428D01*
X90835238Y-95020190D01*
X90738476Y-95068571D01*
X90641714Y-95068571D01*
X90544952Y-95020190D01*
X90496571Y-94923428D01*
X90496571Y-94681523D01*
X90448190Y-94584761D01*
X90883619Y-94100952D02*
X90206285Y-94100952D01*
X90399809Y-94100952D02*
X90303047Y-94052571D01*
X90254666Y-94004190D01*
X90206285Y-93907428D01*
X90206285Y-93810666D01*
X90206285Y-93617142D02*
X90206285Y-93230095D01*
X89867619Y-93472000D02*
X90738476Y-93472000D01*
X90835238Y-93423619D01*
X90883619Y-93326857D01*
X90883619Y-93230095D01*
X90980380Y-93133333D02*
X90980380Y-92359238D01*
X90206285Y-92117333D02*
X90883619Y-92117333D01*
X90303047Y-92117333D02*
X90254666Y-92068952D01*
X90206285Y-91972190D01*
X90206285Y-91827047D01*
X90254666Y-91730285D01*
X90351428Y-91681904D01*
X90883619Y-91681904D01*
X90206285Y-90762666D02*
X90883619Y-90762666D01*
X90206285Y-91198095D02*
X90738476Y-91198095D01*
X90835238Y-91149714D01*
X90883619Y-91052952D01*
X90883619Y-90907809D01*
X90835238Y-90811047D01*
X90786857Y-90762666D01*
X90883619Y-90278857D02*
X90206285Y-90278857D01*
X90303047Y-90278857D02*
X90254666Y-90230476D01*
X90206285Y-90133714D01*
X90206285Y-89988571D01*
X90254666Y-89891809D01*
X90351428Y-89843428D01*
X90883619Y-89843428D01*
X90351428Y-89843428D02*
X90254666Y-89795047D01*
X90206285Y-89698285D01*
X90206285Y-89553142D01*
X90254666Y-89456380D01*
X90351428Y-89408000D01*
X90883619Y-89408000D01*
X90883619Y-88924190D02*
X89867619Y-88924190D01*
X90254666Y-88924190D02*
X90206285Y-88827428D01*
X90206285Y-88633904D01*
X90254666Y-88537142D01*
X90303047Y-88488761D01*
X90399809Y-88440380D01*
X90690095Y-88440380D01*
X90786857Y-88488761D01*
X90835238Y-88537142D01*
X90883619Y-88633904D01*
X90883619Y-88827428D01*
X90835238Y-88924190D01*
X90835238Y-87617904D02*
X90883619Y-87714666D01*
X90883619Y-87908190D01*
X90835238Y-88004952D01*
X90738476Y-88053333D01*
X90351428Y-88053333D01*
X90254666Y-88004952D01*
X90206285Y-87908190D01*
X90206285Y-87714666D01*
X90254666Y-87617904D01*
X90351428Y-87569523D01*
X90448190Y-87569523D01*
X90544952Y-88053333D01*
X90883619Y-87134095D02*
X90206285Y-87134095D01*
X90399809Y-87134095D02*
X90303047Y-87085714D01*
X90254666Y-87037333D01*
X90206285Y-86940571D01*
X90206285Y-86843809D01*
X90786857Y-86505142D02*
X90835238Y-86456761D01*
X90883619Y-86505142D01*
X90835238Y-86553523D01*
X90786857Y-86505142D01*
X90883619Y-86505142D01*
X90254666Y-86505142D02*
X90303047Y-86456761D01*
X90351428Y-86505142D01*
X90303047Y-86553523D01*
X90254666Y-86505142D01*
X90351428Y-86505142D01*
X90883619Y-84715047D02*
X90883619Y-85295619D01*
X90883619Y-85005333D02*
X89867619Y-85005333D01*
X90012761Y-85102095D01*
X90109523Y-85198857D01*
X90157904Y-85295619D01*
X89964380Y-84328000D02*
X89916000Y-84279619D01*
X89867619Y-84182857D01*
X89867619Y-83940952D01*
X89916000Y-83844190D01*
X89964380Y-83795809D01*
X90061142Y-83747428D01*
X90157904Y-83747428D01*
X90303047Y-83795809D01*
X90883619Y-84376380D01*
X90883619Y-83747428D01*
X89867619Y-82876571D02*
X89867619Y-83070095D01*
X89916000Y-83166857D01*
X89964380Y-83215238D01*
X90109523Y-83312000D01*
X90303047Y-83360380D01*
X90690095Y-83360380D01*
X90786857Y-83312000D01*
X90835238Y-83263619D01*
X90883619Y-83166857D01*
X90883619Y-82973333D01*
X90835238Y-82876571D01*
X90786857Y-82828190D01*
X90690095Y-82779809D01*
X90448190Y-82779809D01*
X90351428Y-82828190D01*
X90303047Y-82876571D01*
X90254666Y-82973333D01*
X90254666Y-83166857D01*
X90303047Y-83263619D01*
X90351428Y-83312000D01*
X90448190Y-83360380D01*
X90883619Y-81812190D02*
X90883619Y-82392761D01*
X90883619Y-82102476D02*
X89867619Y-82102476D01*
X90012761Y-82199238D01*
X90109523Y-82295999D01*
X90157904Y-82392761D01*
X91645619Y-96786095D02*
X91645619Y-96689333D01*
X91694000Y-96592571D01*
X91742380Y-96544190D01*
X91839142Y-96495809D01*
X92032666Y-96447428D01*
X92274571Y-96447428D01*
X92468095Y-96495809D01*
X92564857Y-96544190D01*
X92613238Y-96592571D01*
X92661619Y-96689333D01*
X92661619Y-96786095D01*
X92613238Y-96882857D01*
X92564857Y-96931238D01*
X92468095Y-96979619D01*
X92274571Y-97028000D01*
X92032666Y-97028000D01*
X91839142Y-96979619D01*
X91742380Y-96931238D01*
X91694000Y-96882857D01*
X91645619Y-96786095D01*
X92661619Y-95963619D02*
X92661619Y-95770095D01*
X92613238Y-95673333D01*
X92564857Y-95624952D01*
X92419714Y-95528190D01*
X92226190Y-95479809D01*
X91839142Y-95479809D01*
X91742380Y-95528190D01*
X91694000Y-95576571D01*
X91645619Y-95673333D01*
X91645619Y-95866857D01*
X91694000Y-95963619D01*
X91742380Y-96012000D01*
X91839142Y-96060380D01*
X92081047Y-96060380D01*
X92177809Y-96012000D01*
X92226190Y-95963619D01*
X92274571Y-95866857D01*
X92274571Y-95673333D01*
X92226190Y-95576571D01*
X92177809Y-95528190D01*
X92081047Y-95479809D01*
X91597238Y-94318666D02*
X92903523Y-95189523D01*
X91742380Y-94028380D02*
X91694000Y-93980000D01*
X91645619Y-93883238D01*
X91645619Y-93641333D01*
X91694000Y-93544571D01*
X91742380Y-93496190D01*
X91839142Y-93447809D01*
X91935904Y-93447809D01*
X92081047Y-93496190D01*
X92661619Y-94076761D01*
X92661619Y-93447809D01*
X91645619Y-92818857D02*
X91645619Y-92722095D01*
X91694000Y-92625333D01*
X91742380Y-92576952D01*
X91839142Y-92528571D01*
X92032666Y-92480190D01*
X92274571Y-92480190D01*
X92468095Y-92528571D01*
X92564857Y-92576952D01*
X92613238Y-92625333D01*
X92661619Y-92722095D01*
X92661619Y-92818857D01*
X92613238Y-92915619D01*
X92564857Y-92964000D01*
X92468095Y-93012380D01*
X92274571Y-93060761D01*
X92032666Y-93060761D01*
X91839142Y-93012380D01*
X91742380Y-92964000D01*
X91694000Y-92915619D01*
X91645619Y-92818857D01*
X92661619Y-91512571D02*
X92661619Y-92093142D01*
X92661619Y-91802857D02*
X91645619Y-91802857D01*
X91790761Y-91899619D01*
X91887523Y-91996380D01*
X91935904Y-92093142D01*
X91645619Y-91173904D02*
X91645619Y-90496571D01*
X92661619Y-90932000D01*
X91984285Y-89432190D02*
X92661619Y-89190285D01*
X91984285Y-88948380D01*
X92613238Y-88174285D02*
X92661619Y-88271047D01*
X92661619Y-88464571D01*
X92613238Y-88561333D01*
X92516476Y-88609714D01*
X92129428Y-88609714D01*
X92032666Y-88561333D01*
X91984285Y-88464571D01*
X91984285Y-88271047D01*
X92032666Y-88174285D01*
X92129428Y-88125904D01*
X92226190Y-88125904D01*
X92322952Y-88609714D01*
X92661619Y-87690476D02*
X91984285Y-87690476D01*
X92177809Y-87690476D02*
X92081047Y-87642095D01*
X92032666Y-87593714D01*
X91984285Y-87496952D01*
X91984285Y-87400190D01*
X92661619Y-85755238D02*
X92661619Y-86335809D01*
X92661619Y-86045523D02*
X91645619Y-86045523D01*
X91790761Y-86142285D01*
X91887523Y-86239047D01*
X91935904Y-86335809D01*
X92564857Y-85319809D02*
X92613238Y-85271428D01*
X92661619Y-85319809D01*
X92613238Y-85368190D01*
X92564857Y-85319809D01*
X92661619Y-85319809D01*
X91645619Y-84642476D02*
X91645619Y-84545714D01*
X91694000Y-84448952D01*
X91742380Y-84400571D01*
X91839142Y-84352190D01*
X92032666Y-84303809D01*
X92274571Y-84303809D01*
X92468095Y-84352190D01*
X92564857Y-84400571D01*
X92613238Y-84448952D01*
X92661619Y-84545714D01*
X92661619Y-84642476D01*
X92613238Y-84739238D01*
X92564857Y-84787619D01*
X92468095Y-84836000D01*
X92274571Y-84884380D01*
X92032666Y-84884380D01*
X91839142Y-84836000D01*
X91742380Y-84787619D01*
X91694000Y-84739238D01*
X91645619Y-84642476D01*
X91645619Y-83191047D02*
X91645619Y-82562095D01*
X92032666Y-82900761D01*
X92032666Y-82755619D01*
X92081047Y-82658857D01*
X92129428Y-82610476D01*
X92226190Y-82562095D01*
X92468095Y-82562095D01*
X92564857Y-82610476D01*
X92613238Y-82658857D01*
X92661619Y-82755619D01*
X92661619Y-83045904D01*
X92613238Y-83142666D01*
X92564857Y-83191047D01*
X92661619Y-82223428D02*
X91984285Y-81691238D01*
X91984285Y-82223428D02*
X92661619Y-81691238D01*
X91742380Y-81352571D02*
X91694000Y-81304190D01*
X91645619Y-81207428D01*
X91645619Y-80965523D01*
X91694000Y-80868761D01*
X91742380Y-80820380D01*
X91839142Y-80772000D01*
X91935904Y-80772000D01*
X92081047Y-80820380D01*
X92661619Y-81400952D01*
X92661619Y-80772000D01*
D12*
%TO.C,MDB1*%
X132715000Y-71120000D02*
G75*
G03X132715000Y-71120000I-2540000J0D01*
G01*
X132715000Y-106680000D02*
G75*
G03X132715000Y-106680000I-2540000J0D01*
G01*
X92075000Y-101600000D02*
G75*
G03X92075000Y-101600000I-2540000J0D01*
G01*
X92075000Y-76200000D02*
G75*
G03X92075000Y-76200000I-2540000J0D01*
G01*
D14*
%TO.C,P1*%
X102870000Y-76708000D02*
X104140000Y-77978000D01*
X105410000Y-76708000D02*
X102870000Y-76708000D01*
X104140000Y-77978000D02*
X105410000Y-76708000D01*
X109220000Y-77978000D02*
X109220000Y-87122000D01*
X93980000Y-77978000D02*
X93980000Y-87122000D01*
X109220000Y-77978000D02*
X93980000Y-77978000D01*
X93980000Y-87122000D02*
X109220000Y-87122000D01*
%TO.C,P2*%
X93980000Y-99822000D02*
X109220000Y-99822000D01*
X109220000Y-90678000D02*
X93980000Y-90678000D01*
X93980000Y-90678000D02*
X93980000Y-99822000D01*
X109220000Y-90678000D02*
X109220000Y-99822000D01*
X104140000Y-90678000D02*
X105410000Y-89408000D01*
X105410000Y-89408000D02*
X102870000Y-89408000D01*
X102870000Y-89408000D02*
X104140000Y-90678000D01*
%TD*%
%TO.C,P1*%
D11*
X100850095Y-88724619D02*
X100850095Y-87708619D01*
X101237142Y-87708619D01*
X101333904Y-87757000D01*
X101382285Y-87805380D01*
X101430666Y-87902142D01*
X101430666Y-88047285D01*
X101382285Y-88144047D01*
X101333904Y-88192428D01*
X101237142Y-88240809D01*
X100850095Y-88240809D01*
X102398285Y-88724619D02*
X101817714Y-88724619D01*
X102108000Y-88724619D02*
X102108000Y-87708619D01*
X102011238Y-87853761D01*
X101914476Y-87950523D01*
X101817714Y-87998904D01*
%TO.C,P2*%
X100850095Y-101424619D02*
X100850095Y-100408619D01*
X101237142Y-100408619D01*
X101333904Y-100457000D01*
X101382285Y-100505380D01*
X101430666Y-100602142D01*
X101430666Y-100747285D01*
X101382285Y-100844047D01*
X101333904Y-100892428D01*
X101237142Y-100940809D01*
X100850095Y-100940809D01*
X101817714Y-100505380D02*
X101866095Y-100457000D01*
X101962857Y-100408619D01*
X102204761Y-100408619D01*
X102301523Y-100457000D01*
X102349904Y-100505380D01*
X102398285Y-100602142D01*
X102398285Y-100698904D01*
X102349904Y-100844047D01*
X101769333Y-101424619D01*
X102398285Y-101424619D01*
%TD*%
%LPC*%
D15*
%TO.C,MDB1*%
X130175000Y-71120000D03*
X130175000Y-106680000D03*
X89535000Y-101600000D03*
X89535000Y-76200000D03*
D16*
X88265000Y-106680000D03*
X90805000Y-106680000D03*
X93345000Y-106680000D03*
X95885000Y-106680000D03*
X98425000Y-106680000D03*
X100965000Y-106680000D03*
X103505000Y-106680000D03*
X106045000Y-106680000D03*
X108585000Y-106680000D03*
X111125000Y-106680000D03*
X113665000Y-106680000D03*
X116205000Y-106680000D03*
X118745000Y-106680000D03*
X121285000Y-106680000D03*
X123825000Y-106680000D03*
X126365000Y-106680000D03*
X126365000Y-71120000D03*
X123825000Y-71120000D03*
X121285000Y-71120000D03*
X118745000Y-71120000D03*
X116205000Y-71120000D03*
X113665000Y-71120000D03*
X111125000Y-71120000D03*
X108585000Y-71120000D03*
X106045000Y-71120000D03*
X103505000Y-71120000D03*
X100965000Y-71120000D03*
X98425000Y-71120000D03*
X95885000Y-71120000D03*
D17*
X88265000Y-71120000D03*
D16*
X93345000Y-71120000D03*
X90805000Y-71120000D03*
%TD*%
D18*
%TO.C,P1*%
X99060000Y-84074000D03*
X99060000Y-81026000D03*
X101600000Y-84074000D03*
X101600000Y-81026000D03*
X104140000Y-84074000D03*
D19*
X104140000Y-81026000D03*
%TD*%
%TO.C,P2*%
X104140000Y-93726000D03*
D18*
X104140000Y-96774000D03*
X101600000Y-93726000D03*
X101600000Y-96774000D03*
X99060000Y-93726000D03*
X99060000Y-96774000D03*
%TD*%
M02*
