%TF.GenerationSoftware,KiCad,Pcbnew,no-vcs-found-427e5ec~60~ubuntu16.04.1*%
%TF.CreationDate,2017-09-22T15:23:26-04:00*%
%TF.ProjectId,i2c_interface_3x2,6932635F696E746572666163655F3378,1.0*%
%TF.SameCoordinates,Original*%
%TF.FileFunction,Soldermask,Top*%
%TF.FilePolarity,Negative*%
%FSLAX46Y46*%
G04 Gerber Fmt 4.6, Leading zero omitted, Abs format (unit mm)*
G04 Created by KiCad (PCBNEW no-vcs-found-427e5ec~60~ubuntu16.04.1) date Fri Sep 22 15:23:26 2017*
%MOMM*%
%LPD*%
G01*
G04 APERTURE LIST*
%ADD10C,0.228600*%
%ADD11C,3.556000*%
%ADD12O,1.854200X2.540000*%
%ADD13R,1.854200X2.540000*%
%ADD14O,1.625600X2.133600*%
%ADD15R,1.625600X2.133600*%
G04 APERTURE END LIST*
D10*
X156210000Y-67945000D02*
X85725000Y-67945000D01*
X156210000Y-109855000D02*
X156210000Y-67945000D01*
X85725000Y-109855000D02*
X156210000Y-109855000D01*
X85725000Y-67945000D02*
X85725000Y-109855000D01*
D11*
%TO.C,MDB1*%
X130175000Y-71120000D03*
X130175000Y-106680000D03*
X89535000Y-101600000D03*
X89535000Y-76200000D03*
D12*
X88265000Y-106680000D03*
X90805000Y-106680000D03*
X93345000Y-106680000D03*
X95885000Y-106680000D03*
X98425000Y-106680000D03*
X100965000Y-106680000D03*
X103505000Y-106680000D03*
X106045000Y-106680000D03*
X108585000Y-106680000D03*
X111125000Y-106680000D03*
X113665000Y-106680000D03*
X116205000Y-106680000D03*
X118745000Y-106680000D03*
X121285000Y-106680000D03*
X123825000Y-106680000D03*
X126365000Y-106680000D03*
X126365000Y-71120000D03*
X123825000Y-71120000D03*
X121285000Y-71120000D03*
X118745000Y-71120000D03*
X116205000Y-71120000D03*
X113665000Y-71120000D03*
X111125000Y-71120000D03*
X108585000Y-71120000D03*
X106045000Y-71120000D03*
X103505000Y-71120000D03*
X100965000Y-71120000D03*
X98425000Y-71120000D03*
X95885000Y-71120000D03*
D13*
X88265000Y-71120000D03*
D12*
X93345000Y-71120000D03*
X90805000Y-71120000D03*
%TD*%
D14*
%TO.C,P1*%
X99060000Y-84074000D03*
X99060000Y-81026000D03*
X101600000Y-84074000D03*
X101600000Y-81026000D03*
X104140000Y-84074000D03*
D15*
X104140000Y-81026000D03*
%TD*%
%TO.C,P2*%
X104140000Y-93726000D03*
D14*
X104140000Y-96774000D03*
X101600000Y-93726000D03*
X101600000Y-96774000D03*
X99060000Y-93726000D03*
X99060000Y-96774000D03*
%TD*%
M02*
